<?xml version="1.0" encoding="utf-8"?>
<!-- Generator: Adobe Illustrator 17.1.0, SVG Export Plug-In . SVG Version: 6.00 Build 0)  -->
<!DOCTYPE svg PUBLIC "-//W3C//DTD SVG 1.1//EN" "http://www.w3.org/Graphics/SVG/1.1/DTD/svg11.dtd">
<svg version="1.1" id="sightseeing" xmlns="http://www.w3.org/2000/svg" xmlns:xlink="http://www.w3.org/1999/xlink" x="0px"
	 y="0px" viewBox="0 0 1010 1010" enable-background="new 0 0 1010 1010" xml:space="preserve">
<g>
	<path id="sightseeing-label" fill="#FFB400" d="M1010,505c0,278.9111-226.1094,505-505,505C226.0884,1010,0,783.9111,0,505
		C0,226.0996,226.0884,0,505,0C783.8906,0,1010,226.0996,1010,505z"/>
	<g id="sightseeing-sightseeing">
		<g>
			<path fill="#FFFFFF" d="M666.9121,410.8057H334.9897c-14.5102,0-26.3125-11.792-26.3125-26.2857v-80.9668
				c0-14.4878,11.8023-26.2695,26.3125-26.2695h331.9224c3.3965,0,12.4277,0,87.2129,58.8237
				c2.4326,1.918,3.8574,4.8443,3.8574,7.94c0,3.0966-1.4247,6.0229-3.8574,7.9404
				C679.3398,410.8057,670.3086,410.8057,666.9121,410.8057L666.9121,410.8057z M334.9897,297.4819
				c-3.3637,0-6.104,2.7237-6.104,6.0713V384.52c0,3.3535,2.7403,6.0879,6.104,6.0879H665.793
				c7.4852-3.0464,37.6572-24.9101,65.6572-46.5605c-28-21.6495-58.1719-43.5191-65.6572-46.5655H334.9897L334.9897,297.4819z"/>
		</g>
		<g>
			<path fill="#FFFFFF" d="M666.9121,580.8164H334.9897c-3.8247,0-12.7885,0-79.5634-59.2021
				c-2.1704-1.9073-3.4082-4.669-3.4082-7.5567c0-2.8867,1.2378-5.6377,3.4082-7.5556
				c66.7749-59.2242,75.7387-59.2242,79.5634-59.2242h331.9224c14.4981,0,26.29,11.7925,26.29,26.2857v80.9609
				C693.2021,569.0234,681.4102,580.8164,666.9121,580.8164L666.9121,580.8164z M336.2393,560.6074h330.6728
				c3.3525,0,6.082-2.7285,6.082-6.083v-80.9609c0-3.3535-2.7295-6.0879-6.082-6.0879H336.2393
				c-7.2881,3.3369-34.2037,25.1572-58.8072,46.582C302.0356,535.4658,328.9624,557.2754,336.2393,560.6074L336.2393,560.6074z"/>
		</g>
		<g>
			<g>
				<polygon fill="#FFFFFF" points="482.709,699.9092 462.5005,699.9092 462.5005,570.7119 482.709,570.7119 482.709,699.9092 				
					"/>
			</g>
			<g>
				<polygon fill="#FFFFFF" points="539.3896,710.8242 519.1816,710.8242 519.1816,570.7119 539.3896,570.7119 539.3896,710.8242 
									"/>
			</g>
			<g>
				<polygon fill="#FFFFFF" points="539.3896,457.3662 519.1816,457.3662 519.1816,400.7065 539.3896,400.7065 539.3896,457.3662 
									"/>
			</g>
			<g>
				<path fill="#FFFFFF" d="M539.3896,287.3608h-20.208v-24.2851c0-3.3535-2.7402-6.0884-6.1152-6.0884h-24.2637
					c-3.3647,0-6.0937,2.7349-6.0937,6.0884v24.2851h-20.2085v-24.2851c0-14.4937,11.8027-26.2857,26.3022-26.2857h24.2637
					c14.5098,0,26.3232,11.792,26.3232,26.2857V287.3608L539.3896,287.3608z"/>
			</g>
			<g>
				<polygon fill="#FFFFFF" points="482.709,457.3662 462.5005,457.3662 462.5005,400.7065 482.709,400.7065 482.709,457.3662 				
					"/>
			</g>
		</g>
		<g>
			<g>
				<path fill="#FFFFFF" d="M511.5527,723.6572c-13.4238,0-27.3862-5.4785-41.6333-16.3496
					c-12.3178-9.3818-23.5947-13.3926-33.6006-11.9023c-10.9702,1.6436-17.1953,9.6875-17.2607,9.7763
					c-1.0522,1.4668-10.9922,14.7061-30.061,17.6983c-15.6499,2.4765-32.231-2.7725-49.3272-15.4854
					c-32.8125-24.4394-49.2075-4.5038-50.9717-2.1474l-16.373-11.8369c1.0742-1.4903,11.0146-14.7403,30.0825-17.7315
					c15.6499-2.4873,32.2315,2.7725,49.3174,15.5068c12.6025,9.3702,24.0879,13.337,34.1484,11.7383
					c10.751-1.6884,16.7124-9.4258,16.7681-9.5136c1.1172-1.5567,11.3423-15.1016,30.6968-17.9727
					c15.6387-2.3447,32.022,2.9805,48.8335,15.8252c12.2964,9.3809,23.541,13.3477,33.5683,11.9014
					c10.9707-1.6436,17.1953-9.6875,17.2608-9.7755c10.4111-13.6114,40.1103-31.2344,79.3886-2.2354
					c32.1973,23.8242,49.3272,4.2295,51.168,1.9062c0.834-0.9961,15.0146-17.4911,35.9238-18.126
					c13.6006-0.2852,25.8311,5.4355,37.2618,17.3594l-14.5977,13.9834c-7.2549-7.584-14.3447-11.3965-21.9072-11.1563
					c-11.8682,0.2852-20.9649,10.6309-21.0528,10.7393c-9.874,12.9326-39.5849,30.5439-78.8076,1.5468
					c-33.2715-24.5605-50.4344-2.9267-51.1572-1.9843c-0.9199,1.2929-11.1562,14.8388-30.5107,17.7099
					C516.3428,723.4824,513.9541,723.6572,511.5527,723.6572L511.5527,723.6572z"/>
			</g>
			<g>
				<path fill="#FFFFFF" d="M511.5527,773.2148c-13.4238,0-27.3862-5.4785-41.6333-16.3495
					c-12.3178-9.3818-23.5947-13.3828-33.6006-11.9023c-10.9702,1.6436-17.1953,9.6875-17.2607,9.7754
					c-1.0522,1.4678-10.9922,14.707-30.061,17.6992c-15.6499,2.4434-32.231-2.7725-49.3272-15.4863
					c-32.8125-24.4385-49.2075-4.5146-50.9717-2.1465l-16.373-11.8369c1.0742-1.4903,11.0146-14.7403,30.0825-17.7314
					c15.6499-2.4873,32.2315,2.7725,49.3174,15.5069c12.6025,9.3701,24.1645,13.3154,34.1484,11.7372
					c10.751-1.6875,16.7124-9.4247,16.7681-9.5127c1.1172-1.5567,11.3423-15.1016,30.6968-17.9727
					c15.6387-2.3447,32.022,2.9805,48.8335,15.8242c12.2964,9.3819,23.541,13.3272,33.5683,11.9024
					c10.9707-1.6436,17.1953-9.6875,17.2608-9.7754c10.4111-13.6113,40.1103-31.2451,79.3886-2.2256
					c32.1875,23.8047,49.3272,4.2197,51.168,1.8965c0.834-0.9971,15.0146-17.4912,35.9238-18.126
					c13.6006-0.2851,25.8311,5.4356,37.2618,17.3594l-14.5977,13.9834c-7.2549-7.584-14.3447-11.3965-21.9072-11.1563
					c-11.8682,0.2852-20.9649,10.6309-21.0528,10.7393c-9.874,12.9326-39.5849,30.5547-78.8076,1.5469
					c-32.1982-23.8145-49.3593-4.209-51.2236-1.8965c-0.8535,1.2051-11.0898,14.751-30.4443,17.6211
					C516.3428,773.04,513.9541,773.2148,511.5527,773.2148L511.5527,773.2148z"/>
			</g>
		</g>
	</g>
</g>
</svg>
